# xmcd
#
# Track frame offsets:
#	150
#	10480
#	23105
#	34317
#	46967
#	60855
#	74817
#	93742
#	105880
#	118980
#	132642
#	143842
#	154455
#	166367
#	181530
#	193155
#	205780
#	217030
#	229755
#	244417
#	258367
#	269267
#	283405
#	295205
#
# Disc length: 4075 seconds
#
# Revision: 0
# Processed by: cddbd v1.4PL0 Copyright (c) Steve Scherf et al.
# Submitted via: dBpowerAMP V4.0
#
DISCID=790fe918
DTITLE=Various Artist - 48 All Time Love Classics CD2
DYEAR=1900
DGENRE=Oldies
TTITLE0=What A Wonderful World By Louis Armstrong
TTITLE1=Just Walking In The Rain By Johnny Ray
TTITLE2=Hey Paula By Paul and Paula
TTITLE3=Jamaica Farewell By Harry Belafonte
TTITLE4=Quando, Quando By Tony Renis
TTITLE5=Tammy By Debbie Reynolds
TTITLE6=I Can't Stop Loving You By Ray Charles
TTITLE7=Seald With A Kiss By Bryan Hyland
TTITLE8=I'll Be Home By Pat Boon
TTITLE9=My Special Prayer By Percy Sledge
TTITLE10=Fascination By Nat King Cole
TTITLE11=Blueberry Hill By Fats Domino
TTITLE12=I'm Sorry By Brenda Lee
TTITLE13=A Chi By Fausto Leali
TTITLE14=Strangers In The Night By Frabk Sinatra
TTITLE15=It's Over By Roy Orbison
TTITLE16=What A Difference A Day Makes By Dianah Washington
TTITLE17=Melancolie By Peppino Di Capri
TTITLE18=Tell Her JohnnY Said Goodbye By Jerry Jackson
TTITLE19=True Love By Grace Kelly and Bing Crosby
TTITLE20=Send Me Some Lovin' By Little Richard
TTITLE21=Guantanamera By The Sendpipers
TTITLE22=Save The Last Dance For Me By The Drifters
TTITLE23=At The End Of A Rainbow By Earl Grant
EXTD=
EXTT0=
EXTT1=
EXTT2=
EXTT3=
EXTT4=
EXTT5=
EXTT6=
EXTT7=
EXTT8=
EXTT9=
EXTT10=
EXTT11=
EXTT12=
EXTT13=
EXTT14=
EXTT15=
EXTT16=
EXTT17=
EXTT18=
EXTT19=
EXTT20=
EXTT21=
EXTT22=
EXTT23=
PLAYORDER=
